<svg width="35" height="35" viewBox="0 0 35 35" fill="none" xmlns="http://www.w3.org/2000/svg">
<path d="M26.2502 25.2917H26.7502V24.7917V20.9167H28.6668V24.7917V25.2917H29.1668H33.0418V27.2084H29.1668H28.6668V27.7084V31.5834H26.7502V27.7084V27.2084H26.2502H22.3752V25.2917H26.2502ZM6.34455 31.5822C6.4128 30.0496 6.79623 28.5456 7.47291 27.1648C8.223 25.6343 9.31351 24.2957 10.6609 23.2518C12.0083 22.2079 13.5767 21.4862 15.2461 21.1421C16.7895 20.8241 18.3812 20.8365 19.9168 21.1769V23.153C18.718 22.8285 17.4638 22.7481 16.2289 22.9195C14.763 23.1229 13.3673 23.675 12.159 24.5296C10.9506 25.3842 9.96503 26.5162 9.28487 27.8306C8.68152 28.9966 8.33416 30.276 8.26361 31.5831L6.34455 31.5822ZM17.5002 18.4584C12.9419 18.4584 9.25016 14.7666 9.25016 10.2084C9.25016 5.65014 12.9419 1.95837 17.5002 1.95837C22.0584 1.95837 25.7502 5.65014 25.7502 10.2084C25.7502 14.7666 22.0584 18.4584 17.5002 18.4584ZM17.5002 16.5417C20.9992 16.5417 23.8335 13.7074 23.8335 10.2084C23.8335 6.70931 20.9992 3.87504 17.5002 3.87504C14.0011 3.87504 11.1668 6.70932 11.1668 10.2084C11.1668 13.7074 14.0011 16.5417 17.5002 16.5417Z" fill="white" stroke="white"/>
</svg>
