<svg width="35" height="35" viewBox="0 0 35 35" fill="none" xmlns="http://www.w3.org/2000/svg">
<path d="M7.79167 27.7083V27.2083H7.29167H4.875V25.2916H7.29167H7.79167V24.7916V21.875V21.375H7.29167H4.875V19.4583H7.29167H7.79167V18.9583V16.0416V15.5416H7.29167H4.875V13.625H7.29167H7.79167V13.125V10.2083V9.70829H7.29167H4.875V7.79163H7.29167H7.79167V7.29163V4.37496C7.79167 3.8461 8.22114 3.41663 8.75 3.41663H29.1667C29.6955 3.41663 30.125 3.8461 30.125 4.37496V30.625C30.125 31.1538 29.6955 31.5833 29.1667 31.5833H8.75C8.22114 31.5833 7.79167 31.1538 7.79167 30.625V27.7083ZM28.2083 5.83329V5.33329H27.7083H10.2083H9.70833V5.83329V29.1666V29.6666H10.2083H27.7083H28.2083V29.1666V5.83329ZM19.9152 18.9585L19.9165 22.8333H17.9998L17.9985 18.9581L17.9984 18.4583H17.4985H13.625V16.5416H17.5H18V16.0416V12.1666H19.9167V16.0416V16.5416H20.4167H24.2917V18.4583H20.4152H19.915L19.9152 18.9585Z" fill="white" stroke="white"/>
</svg>
