<svg width="36" height="36" viewBox="0 0 36 36" fill="none" xmlns="http://www.w3.org/2000/svg">
<path d="M4.77778 0C4.34823 0 4 0.33579 4 0.75C4 1.16421 4.34823 1.5 4.77778 1.5H28.1111C28.5406 1.5 28.8889 1.16421 28.8889 0.75C28.8889 0.33579 28.5406 0 28.1111 0H4.77778ZM4.77778 7.5C4.34823 7.5 4 7.83585 4 8.25C4 8.66415 4.34823 9 4.77778 9H18.4001C18.8874 8.4309 19.4526 7.92585 20.0796 7.5H4.77778ZM16.7664 16.5C16.6247 16.0166 16.5275 15.5151 16.4793 15H4.77778C4.34823 15 4 15.3358 4 15.75C4 16.1642 4.34823 16.5 4.77778 16.5H16.7664ZM32 14.25C32 17.978 28.866 21 25 21C21.134 21 18 17.978 18 14.25C18 10.522 21.134 7.5 25 7.5C28.866 7.5 32 10.522 32 14.25ZM28.4429 13.5943L23.8221 11.119C23.3038 10.8412 22.6667 11.2028 22.6667 11.7747V16.7253C22.6667 17.2972 23.3038 17.6587 23.8221 17.3809L28.4429 14.9057C28.9763 14.6199 28.9763 13.8801 28.4429 13.5943Z" fill="white"/>
<path d="M8.80197 30.056C8.43397 30.056 8.1033 29.992 7.80997 29.864C7.52197 29.7307 7.2953 29.5493 7.12997 29.32C6.96464 29.0853 6.8793 28.816 6.87397 28.512H7.64997C7.67664 28.7733 7.7833 28.9947 7.96997 29.176C8.16197 29.352 8.4393 29.44 8.80197 29.44C9.14864 29.44 9.42064 29.3547 9.61797 29.184C9.82064 29.008 9.92197 28.784 9.92197 28.512C9.92197 28.2987 9.8633 28.1253 9.74597 27.992C9.62864 27.8587 9.48197 27.7573 9.30597 27.688C9.12997 27.6187 8.89264 27.544 8.59397 27.464C8.22597 27.368 7.92997 27.272 7.70597 27.176C7.4873 27.08 7.29797 26.9307 7.13797 26.728C6.9833 26.52 6.90597 26.2427 6.90597 25.896C6.90597 25.592 6.9833 25.3227 7.13797 25.088C7.29264 24.8533 7.50864 24.672 7.78597 24.544C8.06864 24.416 8.3913 24.352 8.75397 24.352C9.27664 24.352 9.7033 24.4827 10.034 24.744C10.37 25.0053 10.5593 25.352 10.602 25.784H9.80197C9.7753 25.5707 9.6633 25.384 9.46597 25.224C9.26864 25.0587 9.0073 24.976 8.68197 24.976C8.37797 24.976 8.12997 25.056 7.93797 25.216C7.74597 25.3707 7.64997 25.5893 7.64997 25.872C7.64997 26.0747 7.70597 26.24 7.81797 26.368C7.9353 26.496 8.07664 26.5947 8.24197 26.664C8.41264 26.728 8.64997 26.8027 8.95397 26.888C9.32197 26.9893 9.61797 27.0907 9.84197 27.192C10.066 27.288 10.258 27.44 10.418 27.648C10.578 27.8507 10.658 28.128 10.658 28.48C10.658 28.752 10.586 29.008 10.442 29.248C10.298 29.488 10.0846 29.6827 9.80197 29.832C9.5193 29.9813 9.18597 30.056 8.80197 30.056ZM13.9053 25.536C14.2359 25.536 14.5346 25.608 14.8013 25.752C15.0679 25.8907 15.2759 26.1013 15.4253 26.384C15.5799 26.6667 15.6573 27.0107 15.6573 27.416V30H14.9373V27.52C14.9373 27.0827 14.8279 26.7493 14.6093 26.52C14.3906 26.2853 14.0919 26.168 13.7133 26.168C13.3293 26.168 13.0226 26.288 12.7933 26.528C12.5693 26.768 12.4573 27.1173 12.4573 27.576V30H11.7293V24.08H12.4573V26.24C12.6013 26.016 12.7986 25.8427 13.0493 25.72C13.3053 25.5973 13.5906 25.536 13.9053 25.536ZM16.5745 27.792C16.5745 27.344 16.6651 26.952 16.8465 26.616C17.0278 26.2747 17.2758 26.0107 17.5905 25.824C17.9105 25.6373 18.2651 25.544 18.6545 25.544C19.0385 25.544 19.3718 25.6267 19.6545 25.792C19.9371 25.9573 20.1478 26.1653 20.2865 26.416V25.616H21.0225V30H20.2865V29.184C20.1425 29.44 19.9265 29.6533 19.6385 29.824C19.3558 29.9893 19.0251 30.072 18.6465 30.072C18.2571 30.072 17.9051 29.976 17.5905 29.784C17.2758 29.592 17.0278 29.3227 16.8465 28.976C16.6651 28.6293 16.5745 28.2347 16.5745 27.792ZM20.2865 27.8C20.2865 27.4693 20.2198 27.1813 20.0865 26.936C19.9531 26.6907 19.7718 26.504 19.5425 26.376C19.3185 26.2427 19.0705 26.176 18.7985 26.176C18.5265 26.176 18.2785 26.24 18.0545 26.368C17.8305 26.496 17.6518 26.6827 17.5185 26.928C17.3851 27.1733 17.3185 27.4613 17.3185 27.792C17.3185 28.128 17.3851 28.4213 17.5185 28.672C17.6518 28.9173 17.8305 29.1067 18.0545 29.24C18.2785 29.368 18.5265 29.432 18.7985 29.432C19.0705 29.432 19.3185 29.368 19.5425 29.24C19.7718 29.1067 19.9531 28.9173 20.0865 28.672C20.2198 28.4213 20.2865 28.1307 20.2865 27.8ZM22.9807 26.328C23.1087 26.0773 23.2901 25.8827 23.5247 25.744C23.7647 25.6053 24.0554 25.536 24.3967 25.536V26.288H24.2047C23.3887 26.288 22.9807 26.7307 22.9807 27.616V30H22.2527V25.616H22.9807V26.328ZM29.2371 27.64C29.2371 27.7787 29.2291 27.9253 29.2131 28.08H25.7091C25.7358 28.512 25.8824 28.8507 26.1491 29.096C26.4211 29.336 26.7491 29.456 27.1331 29.456C27.4478 29.456 27.7091 29.384 27.9171 29.24C28.1304 29.0907 28.2798 28.8933 28.3651 28.648H29.1491C29.0318 29.0693 28.7971 29.4133 28.4451 29.68C28.0931 29.9413 27.6558 30.072 27.1331 30.072C26.7171 30.072 26.3438 29.9787 26.0131 29.792C25.6878 29.6053 25.4318 29.3413 25.2451 29C25.0584 28.6533 24.9651 28.2533 24.9651 27.8C24.9651 27.3467 25.0558 26.9493 25.2371 26.608C25.4184 26.2667 25.6718 26.0053 25.9971 25.824C26.3278 25.6373 26.7064 25.544 27.1331 25.544C27.5491 25.544 27.9171 25.6347 28.2371 25.816C28.5571 25.9973 28.8024 26.248 28.9731 26.568C29.1491 26.8827 29.2371 27.24 29.2371 27.64ZM28.4851 27.488C28.4851 27.2107 28.4238 26.9733 28.3011 26.776C28.1784 26.5733 28.0104 26.4213 27.7971 26.32C27.5891 26.2133 27.3571 26.16 27.1011 26.16C26.7331 26.16 26.4184 26.2773 26.1571 26.512C25.9011 26.7467 25.7544 27.072 25.7171 27.488H28.4851Z" fill="white"/>
</svg>
