<svg width="36" height="36" viewBox="0 0 36 36" fill="none" xmlns="http://www.w3.org/2000/svg">
<path d="M4.77778 0C4.34823 0 4 0.33579 4 0.75C4 1.16421 4.34823 1.5 4.77778 1.5H28.1111C28.5406 1.5 28.8889 1.16421 28.8889 0.75C28.8889 0.33579 28.5406 0 28.1111 0H4.77778ZM4.77778 7.5C4.34823 7.5 4 7.83585 4 8.25C4 8.66415 4.34823 9 4.77778 9H18.4001C18.8874 8.4309 19.4526 7.92585 20.0796 7.5H4.77778ZM16.7664 16.5C16.6247 16.0166 16.5275 15.5151 16.4793 15H4.77778C4.34823 15 4 15.3358 4 15.75C4 16.1642 4.34823 16.5 4.77778 16.5H16.7664ZM32 14.25C32 17.978 28.866 21 25 21C21.134 21 18 17.978 18 14.25C18 10.522 21.134 7.5 25 7.5C28.866 7.5 32 10.522 32 14.25ZM28.4429 13.5943L23.8221 11.119C23.3038 10.8412 22.6667 11.2028 22.6667 11.7747V16.7253C22.6667 17.2973 23.3038 17.6587 23.8221 17.3809L28.4429 14.9057C28.9763 14.6199 28.9763 13.8801 28.4429 13.5943Z" fill="white"/>
<path d="M7.84009 26.056C7.84009 26.52 7.68009 26.9067 7.36009 27.216C7.04543 27.52 6.56276 27.672 5.91209 27.672H4.84009V30H4.11209V24.424H5.91209C6.54143 24.424 7.01876 24.576 7.34409 24.88C7.67476 25.184 7.84009 25.576 7.84009 26.056ZM5.91209 27.072C6.31743 27.072 6.61609 26.984 6.80809 26.808C7.00009 26.632 7.09609 26.3813 7.09609 26.056C7.09609 25.368 6.70143 25.024 5.91209 25.024H4.84009V27.072H5.91209ZM9.47291 24.08V30H8.74491V24.08H9.47291ZM10.4417 27.792C10.4417 27.344 10.5323 26.952 10.7137 26.616C10.895 26.2747 11.143 26.0107 11.4577 25.824C11.7777 25.6373 12.1323 25.544 12.5217 25.544C12.9057 25.544 13.239 25.6267 13.5217 25.792C13.8043 25.9573 14.015 26.1653 14.1537 26.416V25.616H14.8897V30H14.1537V29.184C14.0097 29.44 13.7937 29.6533 13.5057 29.824C13.223 29.9893 12.8923 30.072 12.5137 30.072C12.1243 30.072 11.7723 29.976 11.4577 29.784C11.143 29.592 10.895 29.3227 10.7137 28.976C10.5323 28.6293 10.4417 28.2347 10.4417 27.792ZM14.1537 27.8C14.1537 27.4693 14.087 27.1813 13.9537 26.936C13.8203 26.6907 13.639 26.504 13.4097 26.376C13.1857 26.2427 12.9377 26.176 12.6657 26.176C12.3937 26.176 12.1457 26.24 11.9217 26.368C11.6977 26.496 11.519 26.6827 11.3857 26.928C11.2523 27.1733 11.1857 27.4613 11.1857 27.792C11.1857 28.128 11.2523 28.4213 11.3857 28.672C11.519 28.9173 11.6977 29.1067 11.9217 29.24C12.1457 29.368 12.3937 29.432 12.6657 29.432C12.9377 29.432 13.1857 29.368 13.4097 29.24C13.639 29.1067 13.8203 28.9173 13.9537 28.672C14.087 28.4213 14.1537 28.1307 14.1537 27.8ZM19.8959 25.616L17.2559 32.064H16.5039L17.3679 29.952L15.5999 25.616H16.4079L17.7839 29.168L19.1439 25.616H19.8959ZM21.0037 24.904C20.8651 24.904 20.7477 24.856 20.6517 24.76C20.5557 24.664 20.5077 24.5467 20.5077 24.408C20.5077 24.2693 20.5557 24.152 20.6517 24.056C20.7477 23.96 20.8651 23.912 21.0037 23.912C21.1371 23.912 21.2491 23.96 21.3397 24.056C21.4357 24.152 21.4837 24.2693 21.4837 24.408C21.4837 24.5467 21.4357 24.664 21.3397 24.76C21.2491 24.856 21.1371 24.904 21.0037 24.904ZM21.3557 25.616V30H20.6277V25.616H21.3557ZM24.7325 25.536C25.2658 25.536 25.6978 25.6987 26.0285 26.024C26.3591 26.344 26.5245 26.808 26.5245 27.416V30H25.8045V27.52C25.8045 27.0827 25.6951 26.7493 25.4765 26.52C25.2578 26.2853 24.9591 26.168 24.5805 26.168C24.1965 26.168 23.8898 26.288 23.6605 26.528C23.4365 26.768 23.3245 27.1173 23.3245 27.576V30H22.5965V25.616H23.3245V26.24C23.4685 26.016 23.6631 25.8427 23.9085 25.72C24.1591 25.5973 24.4338 25.536 24.7325 25.536ZM29.5217 25.544C29.9003 25.544 30.231 25.6267 30.5137 25.792C30.8017 25.9573 31.015 26.1653 31.1537 26.416V25.616H31.8897V30.096C31.8897 30.496 31.8043 30.8507 31.6337 31.16C31.463 31.4747 31.2177 31.72 30.8977 31.896C30.583 32.072 30.215 32.16 29.7937 32.16C29.2177 32.16 28.7377 32.024 28.3537 31.752C27.9697 31.48 27.743 31.1093 27.6737 30.64H28.3937C28.4737 30.9067 28.639 31.12 28.8897 31.28C29.1403 31.4453 29.4417 31.528 29.7937 31.528C30.1937 31.528 30.519 31.4027 30.7697 31.152C31.0257 30.9013 31.1537 30.5493 31.1537 30.096V29.176C31.0097 29.432 30.7963 29.6453 30.5137 29.816C30.231 29.9867 29.9003 30.072 29.5217 30.072C29.1323 30.072 28.7777 29.976 28.4577 29.784C28.143 29.592 27.895 29.3227 27.7137 28.976C27.5323 28.6293 27.4417 28.2347 27.4417 27.792C27.4417 27.344 27.5323 26.952 27.7137 26.616C27.895 26.2747 28.143 26.0107 28.4577 25.824C28.7777 25.6373 29.1323 25.544 29.5217 25.544ZM31.1537 27.8C31.1537 27.4693 31.087 27.1813 30.9537 26.936C30.8203 26.6907 30.639 26.504 30.4097 26.376C30.1857 26.2427 29.9377 26.176 29.6657 26.176C29.3937 26.176 29.1457 26.24 28.9217 26.368C28.6977 26.496 28.519 26.6827 28.3857 26.928C28.2523 27.1733 28.1857 27.4613 28.1857 27.792C28.1857 28.128 28.2523 28.4213 28.3857 28.672C28.519 28.9173 28.6977 29.1067 28.9217 29.24C29.1457 29.368 29.3937 29.432 29.6657 29.432C29.9377 29.432 30.1857 29.368 30.4097 29.24C30.639 29.1067 30.8203 28.9173 30.9537 28.672C31.087 28.4213 31.1537 28.1307 31.1537 27.8Z" fill="white"/>
</svg>
