<svg width="35" height="35" viewBox="0 0 35 35" fill="none" xmlns="http://www.w3.org/2000/svg">
<path d="M2.9165 26.25H17.4998V29.1666H2.9165V26.25ZM2.9165 16.0416H23.3332V18.9583H2.9165V16.0416ZM2.9165 5.83331H32.0832V8.74998H2.9165V5.83331ZM27.7082 22.1229V13.125H34.9998V16.0416H30.6248V26.25C30.6243 27.1786 30.3284 28.083 29.7798 28.8322C29.2313 29.5815 28.4585 30.1367 27.5734 30.4177C26.6883 30.6986 25.7368 30.6906 24.8565 30.3949C23.9763 30.0992 23.2129 29.531 22.677 28.7727C22.1411 28.0143 21.8603 27.1051 21.8754 26.1766C21.8905 25.2481 22.2006 24.3485 22.7609 23.608C23.3212 22.8674 24.1026 22.3244 24.992 22.0574C25.8814 21.7904 26.8327 21.8134 27.7082 22.1229ZM26.2498 27.7083C26.6366 27.7083 27.0075 27.5547 27.281 27.2812C27.5545 27.0077 27.7082 26.6368 27.7082 26.25C27.7082 25.8632 27.5545 25.4923 27.281 25.2188C27.0075 24.9453 26.6366 24.7916 26.2498 24.7916C25.8631 24.7916 25.4921 24.9453 25.2186 25.2188C24.9451 25.4923 24.7915 25.8632 24.7915 26.25C24.7915 26.6368 24.9451 27.0077 25.2186 27.2812C25.4921 27.5547 25.8631 27.7083 26.2498 27.7083Z" fill="white"/>
</svg>
