<svg width="35" height="35" viewBox="0 0 35 35" fill="none" xmlns="http://www.w3.org/2000/svg">
<path d="M13.4082 5.75728C13.5978 8.17086 14.2961 10.517 15.4571 12.6414L15.4573 12.6418C15.5698 12.8474 15.6031 13.0871 15.5509 13.3157C15.4986 13.5442 15.3644 13.7456 15.1736 13.8818C15.1736 13.8818 15.1736 13.8818 15.1736 13.8819L13.3682 15.171L13.001 15.4332L13.2242 15.8253C14.6371 18.3074 16.6926 20.3629 19.1747 21.7758L19.5668 21.999L19.829 21.6318L21.1181 19.8264C21.1182 19.8264 21.1182 19.8264 21.1182 19.8264C21.2544 19.6356 21.4558 19.5014 21.6843 19.4491C21.9129 19.3969 22.1526 19.4302 22.3582 19.5427L22.3586 19.5429C24.4829 20.7039 26.8289 21.4021 29.2424 21.5918C29.4827 21.6108 29.707 21.7197 29.8706 21.8968C30.0342 22.0739 30.125 22.3061 30.125 22.5472V22.5473V29.0544V29.0545C30.1251 29.2918 30.0371 29.5206 29.8781 29.6968C29.7191 29.8729 29.5005 29.9838 29.2644 30.008L29.2638 30.0081C28.5085 30.0865 27.747 30.125 26.9792 30.125C14.772 30.125 4.875 20.228 4.875 8.02083C4.875 7.25301 4.91353 6.49149 4.99191 5.73619L4.99198 5.73558C5.01618 5.49954 5.12709 5.28087 5.30323 5.1219C5.47938 4.96292 5.70824 4.87495 5.94552 4.875H5.94563H12.4527H12.4528C12.6939 4.87497 12.9261 4.9658 13.1032 5.12939C13.2802 5.2929 13.3891 5.51708 13.4082 5.75728ZM13.4082 5.75728L13.9067 5.71812M13.4082 5.75728C13.4082 5.7574 13.4082 5.75751 13.4082 5.75763L13.9067 5.71812M13.9067 5.71812C14.0907 8.06136 14.7687 10.3391 15.8958 12.4017C16.0671 12.7146 16.1178 13.0794 16.0383 13.4272C15.9587 13.7749 15.7545 14.0814 15.4642 14.2888L13.9067 5.71812ZM6.79312 8.02077C6.79163 19.1703 15.8297 28.2083 26.9792 28.2083C27.2286 28.2083 27.4793 28.2039 27.7294 28.1933L28.2083 28.1731V27.6938V23.8481V23.4169L27.7818 23.3535C25.9787 23.0859 24.2233 22.5609 22.5693 21.7947L22.1932 21.6204L21.9523 21.9577L20.2017 24.4088C19.5537 24.1405 18.9222 23.8338 18.3105 23.4902C18.3101 23.49 18.3097 23.4897 18.3093 23.4895L18.2271 23.4427C18.2271 23.4427 18.2271 23.4427 18.2271 23.4427C15.4448 21.8593 13.1407 19.5552 11.5573 16.7729L11.5105 16.6907C11.5103 16.6903 11.5101 16.69 11.5099 16.6896C11.1663 16.0779 10.8595 15.4463 10.5912 14.7983L13.0423 13.0477L13.3796 12.8068L13.2053 12.4307C12.4391 10.7767 11.9141 9.02133 11.6465 7.21825L11.5831 6.79167H11.1519H7.30625H6.824L6.80658 7.27361C6.79761 7.52176 6.79312 7.77125 6.79312 8.02077ZM6.79312 8.02077L7.29312 8.02083L6.79312 8.02077Z" fill="white" stroke="white"/>
</svg>
