<svg width="29" height="28" viewBox="0 0 29 28" fill="none" xmlns="http://www.w3.org/2000/svg">
<path d="M14.4349 2.60476C17.6778 -0.470863 22.6892 -0.368779 25.8134 2.93726C28.9362 6.24476 29.0439 11.5123 26.1392 14.9481L14.4321 27.3323L2.72776 14.9481C-0.176926 11.5123 -0.0678617 6.23601 3.05357 2.93726C6.18053 -0.364404 11.1823 -0.475238 14.4349 2.60476ZM23.8585 4.99789C21.7877 2.80747 18.4468 2.71851 16.2793 4.77476L14.4363 6.52185L12.5918 4.77622C10.4175 2.71705 7.08342 2.80747 5.00706 5.0008C2.95003 7.17372 2.84649 10.6518 4.74199 12.9502L14.4335 23.2037L24.125 12.9516C26.0219 10.6518 25.9183 7.1781 23.8585 4.99789Z" fill="white"/>
</svg>
