<svg width="36" height="43" viewBox="0 0 36 43" fill="none" xmlns="http://www.w3.org/2000/svg">
<path d="M22.6667 9.39933H23.184V9.91667V11.3333V11.8507H22.6667H18.934V15.066H22.1493V12.75V12.2327H22.6667H24.9827V10.434H24.0833H23.566V9.91667V7.60067H21.25H20.7327V7.08333V4.76733H18.934V7.98267H21.25H21.7673V8.5V9.39933H22.6667ZM26.0173 13.2673V15.066H29.2327V13.2673H26.0173ZM24.6007 6.566H26.9167H27.434V7.08333V9.39933H29.2327V4.76733H24.6007V6.566ZM7.08333 27.434H6.566V26.9167V21.25V20.7327H7.08333H12.75H13.2673V21.25V26.9167V27.434H12.75H7.08333ZM21.25 27.434H20.7327V26.9167V21.25V20.7327H21.25H26.9167H27.434V21.25V26.9167V27.434H26.9167H21.25ZM7.08333 13.2673H6.566V12.75V7.08333V6.566H7.08333H12.75H13.2673V7.08333V12.75V13.2673H12.75H7.08333ZM4.76733 29.2327H15.066V18.934H4.76733V29.2327ZM18.934 29.2327H29.2327V18.934H18.934V29.2327ZM4.76733 15.066H15.066V4.76733H4.76733V15.066ZM9.01733 24.9827H10.816V23.184H9.01733V24.9827ZM9.01733 10.816H10.816V9.01733H9.01733V10.816ZM23.184 24.9827H24.9827V23.184H23.184V24.9827Z" stroke="white" stroke-width="1.03467"/>
<path d="M6.10363 41.056L4.99163 39.944C4.71963 40.0187 4.44229 40.056 4.15963 40.056C3.64229 40.056 3.17029 39.936 2.74363 39.696C2.31696 39.4507 1.97829 39.112 1.72763 38.68C1.48229 38.2427 1.35963 37.752 1.35963 37.208C1.35963 36.664 1.48229 36.176 1.72763 35.744C1.97829 35.3067 2.31696 34.968 2.74363 34.728C3.17029 34.4827 3.64229 34.36 4.15963 34.36C4.68229 34.36 5.15696 34.4827 5.58363 34.728C6.01029 34.968 6.34629 35.304 6.59163 35.736C6.83696 36.168 6.95963 36.6587 6.95963 37.208C6.95963 37.7413 6.84229 38.2213 6.60763 38.648C6.37296 39.0747 6.05029 39.4107 5.63963 39.656L7.04763 41.056H6.10363ZM2.10363 37.208C2.10363 37.6507 2.19163 38.04 2.36763 38.376C2.54896 38.712 2.79429 38.9707 3.10363 39.152C3.41829 39.3333 3.77029 39.424 4.15963 39.424C4.54896 39.424 4.89829 39.3333 5.20763 39.152C5.52229 38.9707 5.76763 38.712 5.94363 38.376C6.12496 38.04 6.21563 37.6507 6.21563 37.208C6.21563 36.76 6.12496 36.3707 5.94363 36.04C5.76763 35.704 5.52496 35.4453 5.21563 35.264C4.90629 35.0827 4.55429 34.992 4.15963 34.992C3.76496 34.992 3.41296 35.0827 3.10363 35.264C2.79429 35.4453 2.54896 35.704 2.36763 36.04C2.19163 36.3707 2.10363 36.76 2.10363 37.208ZM10.8723 40L9.54431 37.72H8.66431V40H7.93631V34.424H9.73631C10.1576 34.424 10.5123 34.496 10.8003 34.64C11.0936 34.784 11.3123 34.9787 11.4563 35.224C11.6003 35.4693 11.6723 35.7493 11.6723 36.064C11.6723 36.448 11.5603 36.7867 11.3363 37.08C11.1176 37.3733 10.787 37.568 10.3443 37.664L11.7443 40H10.8723ZM8.66431 37.136H9.73631C10.131 37.136 10.427 37.04 10.6243 36.848C10.8216 36.6507 10.9203 36.3893 10.9203 36.064C10.9203 35.7333 10.8216 35.4773 10.6243 35.296C10.4323 35.1147 10.1363 35.024 9.73631 35.024H8.66431V37.136ZM14.6643 37.208C14.6643 36.664 14.787 36.176 15.0323 35.744C15.2776 35.3067 15.611 34.9653 16.0323 34.72C16.459 34.4747 16.931 34.352 17.4483 34.352C18.0563 34.352 18.587 34.4987 19.0403 34.792C19.4936 35.0853 19.8243 35.5013 20.0323 36.04H19.1603C19.0056 35.704 18.7816 35.4453 18.4883 35.264C18.2003 35.0827 17.8536 34.992 17.4483 34.992C17.059 34.992 16.7096 35.0827 16.4003 35.264C16.091 35.4453 15.8483 35.704 15.6723 36.04C15.4963 36.3707 15.4083 36.76 15.4083 37.208C15.4083 37.6507 15.4963 38.04 15.6723 38.376C15.8483 38.7067 16.091 38.9627 16.4003 39.144C16.7096 39.3253 17.059 39.416 17.4483 39.416C17.8536 39.416 18.2003 39.328 18.4883 39.152C18.7816 38.9707 19.0056 38.712 19.1603 38.376H20.0323C19.8243 38.9093 19.4936 39.3227 19.0403 39.616C18.587 39.904 18.0563 40.048 17.4483 40.048C16.931 40.048 16.459 39.928 16.0323 39.688C15.611 39.4427 15.2776 39.104 15.0323 38.672C14.787 38.24 14.6643 37.752 14.6643 37.208ZM23.028 40.072C22.6173 40.072 22.244 39.9787 21.908 39.792C21.5773 39.6053 21.316 39.3413 21.124 39C20.9373 38.6533 20.844 38.2533 20.844 37.8C20.844 37.352 20.94 36.9573 21.132 36.616C21.3293 36.2693 21.596 36.0053 21.932 35.824C22.268 35.6373 22.644 35.544 23.06 35.544C23.476 35.544 23.852 35.6373 24.188 35.824C24.524 36.0053 24.788 36.2667 24.98 36.608C25.1773 36.9493 25.276 37.3467 25.276 37.8C25.276 38.2533 25.1747 38.6533 24.972 39C24.7747 39.3413 24.5053 39.6053 24.164 39.792C23.8227 39.9787 23.444 40.072 23.028 40.072ZM23.028 39.432C23.2893 39.432 23.5347 39.3707 23.764 39.248C23.9933 39.1253 24.1773 38.9413 24.316 38.696C24.46 38.4507 24.532 38.152 24.532 37.8C24.532 37.448 24.4627 37.1493 24.324 36.904C24.1853 36.6587 24.004 36.4773 23.78 36.36C23.556 36.2373 23.3133 36.176 23.052 36.176C22.7853 36.176 22.54 36.2373 22.316 36.36C22.0973 36.4773 21.9213 36.6587 21.788 36.904C21.6547 37.1493 21.588 37.448 21.588 37.8C21.588 38.1573 21.652 38.4587 21.78 38.704C21.9133 38.9493 22.0893 39.1333 22.308 39.256C22.5267 39.3733 22.7667 39.432 23.028 39.432ZM25.9612 37.792C25.9612 37.344 26.0519 36.952 26.2332 36.616C26.4145 36.2747 26.6625 36.0107 26.9772 35.824C27.2972 35.6373 27.6545 35.544 28.0492 35.544C28.3905 35.544 28.7079 35.624 29.0012 35.784C29.2945 35.9387 29.5185 36.144 29.6732 36.4V34.08H30.4092V40H29.6732V39.176C29.5292 39.4373 29.3159 39.6533 29.0332 39.824C28.7505 39.9893 28.4199 40.072 28.0412 40.072C27.6519 40.072 27.2972 39.976 26.9772 39.784C26.6625 39.592 26.4145 39.3227 26.2332 38.976C26.0519 38.6293 25.9612 38.2347 25.9612 37.792ZM29.6732 37.8C29.6732 37.4693 29.6065 37.1813 29.4732 36.936C29.3399 36.6907 29.1585 36.504 28.9292 36.376C28.7052 36.2427 28.4572 36.176 28.1852 36.176C27.9132 36.176 27.6652 36.24 27.4412 36.368C27.2172 36.496 27.0385 36.6827 26.9052 36.928C26.7719 37.1733 26.7052 37.4613 26.7052 37.792C26.7052 38.128 26.7719 38.4213 26.9052 38.672C27.0385 38.9173 27.2172 39.1067 27.4412 39.24C27.6652 39.368 27.9132 39.432 28.1852 39.432C28.4572 39.432 28.7052 39.368 28.9292 39.24C29.1585 39.1067 29.3399 38.9173 29.4732 38.672C29.6065 38.4213 29.6732 38.1307 29.6732 37.8ZM35.6394 37.64C35.6394 37.7787 35.6314 37.9253 35.6154 38.08H32.1114C32.1381 38.512 32.2848 38.8507 32.5514 39.096C32.8234 39.336 33.1514 39.456 33.5354 39.456C33.8501 39.456 34.1114 39.384 34.3194 39.24C34.5328 39.0907 34.6821 38.8933 34.7674 38.648H35.5514C35.4341 39.0693 35.1994 39.4133 34.8474 39.68C34.4954 39.9413 34.0581 40.072 33.5354 40.072C33.1194 40.072 32.7461 39.9787 32.4154 39.792C32.0901 39.6053 31.8341 39.3413 31.6474 39C31.4608 38.6533 31.3674 38.2533 31.3674 37.8C31.3674 37.3467 31.4581 36.9493 31.6394 36.608C31.8208 36.2667 32.0741 36.0053 32.3994 35.824C32.7301 35.6373 33.1088 35.544 33.5354 35.544C33.9514 35.544 34.3194 35.6347 34.6394 35.816C34.9594 35.9973 35.2048 36.248 35.3754 36.568C35.5514 36.8827 35.6394 37.24 35.6394 37.64ZM34.8874 37.488C34.8874 37.2107 34.8261 36.9733 34.7034 36.776C34.5808 36.5733 34.4128 36.4213 34.1994 36.32C33.9914 36.2133 33.7594 36.16 33.5034 36.16C33.1354 36.16 32.8208 36.2773 32.5594 36.512C32.3034 36.7467 32.1568 37.072 32.1194 37.488H34.8874Z" fill="white"/>
</svg>
