<svg width="35" height="35" viewBox="0 0 35 35" fill="none" xmlns="http://www.w3.org/2000/svg">
<path d="M23.3333 25.2917H23.8333V24.7917V23.3333V22.8333H23.3333H19.4583V19.4583H22.8333V21.875V22.375H23.3333H25.75V24.2917H24.7917H24.2917V24.7917V27.2083H21.875H21.375V27.7083V30.125H19.4583V26.75H21.875H22.375V26.25V25.2917H23.3333ZM26.75 21.375V19.4583H30.125V21.375H26.75ZM25.2917 28.2083H27.7083H28.2083V27.7083V25.2917H30.125V30.125H25.2917V28.2083ZM7.29167 6.79167H6.79167V7.29167V13.125V13.625H7.29167H13.125H13.625V13.125V7.29167V6.79167H13.125H7.29167ZM21.875 6.79167H21.375V7.29167V13.125V13.625H21.875H27.7083H28.2083V13.125V7.29167V6.79167H27.7083H21.875ZM7.29167 21.375H6.79167V21.875V27.7083V28.2083H7.29167H13.125H13.625V27.7083V21.875V21.375H13.125H7.29167ZM4.875 4.875H15.5417V15.5417H4.875V4.875ZM19.4583 4.875H30.125V15.5417H19.4583V4.875ZM4.875 19.4583H15.5417V30.125H4.875V19.4583ZM9.25 9.25H11.1667V11.1667H9.25V9.25ZM9.25 23.8333H11.1667V25.75H9.25V23.8333ZM23.8333 9.25H25.75V11.1667H23.8333V9.25Z" fill="white" stroke="white"/>
</svg>
