<svg width="35" height="34" viewBox="0 0 35 34" fill="none" xmlns="http://www.w3.org/2000/svg">
<path d="M21.3333 6.191H21.7743V5.309H20.8923V5.75V6.191H21.3333ZM22.2917 7.22567H21.8507V7.66667V8.10767H22.7327V7.22567H22.2917ZM18.9757 5.23267H19.8577V4.79167V3.39233H18.9757V5.23267ZM23.7673 9.14233V10.0243H25.6077V9.14233H23.7673ZM22.809 4.27433H24.2083H24.7257V4.79167V6.191H25.6077V3.39233H22.809V4.27433ZM20.816 8.184H18.9757V10.0243H20.816V8.625V8.184ZM10.7917 18.7257H10.2743V18.2083V14.375V13.8577H10.7917H14.625H15.1423V14.375V18.2083V18.7257H14.625H10.7917ZM20.375 18.7257H19.8577V18.2083V14.375V13.8577H20.375H24.2083H24.7257V14.375V18.2083V18.7257H24.2083H20.375ZM10.7917 9.14233H10.2743V8.625V4.79167V4.27433H10.7917H14.625H15.1423V4.79167V8.625V9.14233H14.625H10.7917ZM9.39233 19.6077H16.0243V12.9757H9.39233V19.6077ZM18.9757 19.6077H25.6077V12.9757H18.9757V19.6077ZM9.39233 10.0243H16.0243V3.39233H9.39233V10.0243ZM12.2673 16.7327H13.1493V15.8507H12.2673V16.7327ZM12.2673 7.14933H13.1493V6.26733H12.2673V7.14933ZM21.8507 16.7327H22.7327V15.8507H21.8507V16.7327Z" stroke="white" stroke-width="1.03467"/>
<path d="M5.10363 32.056L3.99163 30.944C3.71963 31.0187 3.44229 31.056 3.15963 31.056C2.64229 31.056 2.17029 30.936 1.74363 30.696C1.31696 30.4507 0.978292 30.112 0.727625 29.68C0.482292 29.2427 0.359625 28.752 0.359625 28.208C0.359625 27.664 0.482292 27.176 0.727625 26.744C0.978292 26.3067 1.31696 25.968 1.74363 25.728C2.17029 25.4827 2.64229 25.36 3.15963 25.36C3.68229 25.36 4.15696 25.4827 4.58363 25.728C5.01029 25.968 5.34629 26.304 5.59163 26.736C5.83696 27.168 5.95963 27.6587 5.95963 28.208C5.95963 28.7413 5.84229 29.2213 5.60763 29.648C5.37296 30.0747 5.05029 30.4107 4.63963 30.656L6.04763 32.056H5.10363ZM1.10363 28.208C1.10363 28.6507 1.19163 29.04 1.36763 29.376C1.54896 29.712 1.79429 29.9707 2.10363 30.152C2.41829 30.3333 2.77029 30.424 3.15963 30.424C3.54896 30.424 3.89829 30.3333 4.20763 30.152C4.52229 29.9707 4.76763 29.712 4.94363 29.376C5.12496 29.04 5.21563 28.6507 5.21563 28.208C5.21563 27.76 5.12496 27.3707 4.94363 27.04C4.76763 26.704 4.52496 26.4453 4.21563 26.264C3.90629 26.0827 3.55429 25.992 3.15963 25.992C2.76496 25.992 2.41296 26.0827 2.10363 26.264C1.79429 26.4453 1.54896 26.704 1.36763 27.04C1.19163 27.3707 1.10363 27.76 1.10363 28.208ZM9.87231 31L8.54431 28.72H7.66431V31H6.93631V25.424H8.73631C9.15765 25.424 9.51231 25.496 9.80031 25.64C10.0936 25.784 10.3123 25.9787 10.4563 26.224C10.6003 26.4693 10.6723 26.7493 10.6723 27.064C10.6723 27.448 10.5603 27.7867 10.3363 28.08C10.1176 28.3733 9.78698 28.568 9.34431 28.664L10.7443 31H9.87231ZM7.66431 28.136H8.73631C9.13098 28.136 9.42698 28.04 9.62431 27.848C9.82165 27.6507 9.92031 27.3893 9.92031 27.064C9.92031 26.7333 9.82165 26.4773 9.62431 26.296C9.43231 26.1147 9.13631 26.024 8.73631 26.024H7.66431V28.136ZM13.6643 28.208C13.6643 27.664 13.787 27.176 14.0323 26.744C14.2776 26.3067 14.611 25.9653 15.0323 25.72C15.459 25.4747 15.931 25.352 16.4483 25.352C17.0563 25.352 17.587 25.4987 18.0403 25.792C18.4936 26.0853 18.8243 26.5013 19.0323 27.04H18.1603C18.0056 26.704 17.7816 26.4453 17.4883 26.264C17.2003 26.0827 16.8536 25.992 16.4483 25.992C16.059 25.992 15.7096 26.0827 15.4003 26.264C15.091 26.4453 14.8483 26.704 14.6723 27.04C14.4963 27.3707 14.4083 27.76 14.4083 28.208C14.4083 28.6507 14.4963 29.04 14.6723 29.376C14.8483 29.7067 15.091 29.9627 15.4003 30.144C15.7096 30.3253 16.059 30.416 16.4483 30.416C16.8536 30.416 17.2003 30.328 17.4883 30.152C17.7816 29.9707 18.0056 29.712 18.1603 29.376H19.0323C18.8243 29.9093 18.4936 30.3227 18.0403 30.616C17.587 30.904 17.0563 31.048 16.4483 31.048C15.931 31.048 15.459 30.928 15.0323 30.688C14.611 30.4427 14.2776 30.104 14.0323 29.672C13.787 29.24 13.6643 28.752 13.6643 28.208ZM22.028 31.072C21.6173 31.072 21.244 30.9787 20.908 30.792C20.5773 30.6053 20.316 30.3413 20.124 30C19.9373 29.6533 19.844 29.2533 19.844 28.8C19.844 28.352 19.94 27.9573 20.132 27.616C20.3293 27.2693 20.596 27.0053 20.932 26.824C21.268 26.6373 21.644 26.544 22.06 26.544C22.476 26.544 22.852 26.6373 23.188 26.824C23.524 27.0053 23.788 27.2667 23.98 27.608C24.1773 27.9493 24.276 28.3467 24.276 28.8C24.276 29.2533 24.1747 29.6533 23.972 30C23.7747 30.3413 23.5053 30.6053 23.164 30.792C22.8227 30.9787 22.444 31.072 22.028 31.072ZM22.028 30.432C22.2893 30.432 22.5347 30.3707 22.764 30.248C22.9933 30.1253 23.1773 29.9413 23.316 29.696C23.46 29.4507 23.532 29.152 23.532 28.8C23.532 28.448 23.4627 28.1493 23.324 27.904C23.1853 27.6587 23.004 27.4773 22.78 27.36C22.556 27.2373 22.3133 27.176 22.052 27.176C21.7853 27.176 21.54 27.2373 21.316 27.36C21.0973 27.4773 20.9213 27.6587 20.788 27.904C20.6547 28.1493 20.588 28.448 20.588 28.8C20.588 29.1573 20.652 29.4587 20.78 29.704C20.9133 29.9493 21.0893 30.1333 21.308 30.256C21.5267 30.3733 21.7667 30.432 22.028 30.432ZM24.9612 28.792C24.9612 28.344 25.0519 27.952 25.2332 27.616C25.4145 27.2747 25.6625 27.0107 25.9772 26.824C26.2972 26.6373 26.6545 26.544 27.0492 26.544C27.3905 26.544 27.7079 26.624 28.0012 26.784C28.2945 26.9387 28.5185 27.144 28.6732 27.4V25.08H29.4092V31H28.6732V30.176C28.5292 30.4373 28.3159 30.6533 28.0332 30.824C27.7505 30.9893 27.4199 31.072 27.0412 31.072C26.6519 31.072 26.2972 30.976 25.9772 30.784C25.6625 30.592 25.4145 30.3227 25.2332 29.976C25.0519 29.6293 24.9612 29.2347 24.9612 28.792ZM28.6732 28.8C28.6732 28.4693 28.6065 28.1813 28.4732 27.936C28.3399 27.6907 28.1585 27.504 27.9292 27.376C27.7052 27.2427 27.4572 27.176 27.1852 27.176C26.9132 27.176 26.6652 27.24 26.4412 27.368C26.2172 27.496 26.0385 27.6827 25.9052 27.928C25.7719 28.1733 25.7052 28.4613 25.7052 28.792C25.7052 29.128 25.7719 29.4213 25.9052 29.672C26.0385 29.9173 26.2172 30.1067 26.4412 30.24C26.6652 30.368 26.9132 30.432 27.1852 30.432C27.4572 30.432 27.7052 30.368 27.9292 30.24C28.1585 30.1067 28.3399 29.9173 28.4732 29.672C28.6065 29.4213 28.6732 29.1307 28.6732 28.8ZM34.6394 28.64C34.6394 28.7787 34.6314 28.9253 34.6154 29.08H31.1114C31.1381 29.512 31.2848 29.8507 31.5514 30.096C31.8234 30.336 32.1514 30.456 32.5354 30.456C32.8501 30.456 33.1114 30.384 33.3194 30.24C33.5328 30.0907 33.6821 29.8933 33.7674 29.648H34.5514C34.4341 30.0693 34.1994 30.4133 33.8474 30.68C33.4954 30.9413 33.0581 31.072 32.5354 31.072C32.1194 31.072 31.7461 30.9787 31.4154 30.792C31.0901 30.6053 30.8341 30.3413 30.6474 30C30.4608 29.6533 30.3674 29.2533 30.3674 28.8C30.3674 28.3467 30.4581 27.9493 30.6394 27.608C30.8208 27.2667 31.0741 27.0053 31.3994 26.824C31.7301 26.6373 32.1088 26.544 32.5354 26.544C32.9514 26.544 33.3194 26.6347 33.6394 26.816C33.9594 26.9973 34.2048 27.248 34.3754 27.568C34.5514 27.8827 34.6394 28.24 34.6394 28.64ZM33.8874 28.488C33.8874 28.2107 33.8261 27.9733 33.7034 27.776C33.5808 27.5733 33.4128 27.4213 33.1994 27.32C32.9914 27.2133 32.7594 27.16 32.5034 27.16C32.1354 27.16 31.8208 27.2773 31.5594 27.512C31.3034 27.7467 31.1568 28.072 31.1194 28.488H33.8874Z" fill="white"/>
</svg>
