<svg width="35" height="35" viewBox="0 0 35 35" fill="none" xmlns="http://www.w3.org/2000/svg">
<path d="M28.2083 27.7083V20.9167H30.125V29.1667C30.125 29.4208 30.024 29.6646 29.8443 29.8443C29.6646 30.024 29.4208 30.125 29.1667 30.125H5.83333C5.57917 30.125 5.33541 30.024 5.15569 29.8443C4.97597 29.6646 4.875 29.4208 4.875 29.1667V5.83333C4.875 5.57917 4.97597 5.33541 5.15569 5.15569C5.33541 4.97597 5.57917 4.875 5.83333 4.875H14.0833V6.79167H7.29167H6.79167V7.29167V27.7083V28.2083H7.29167H27.7083H28.2083V27.7083ZM25.9998 7.64522L26.8534 6.79167H25.6463H19.4583V4.875H30.125V15.5417H28.2083V9.35375V8.14664L27.3548 9.0002L17.5 18.855L16.145 17.5L25.9998 7.64522Z" fill="white" stroke="white"/>
</svg>
