<svg width="31" height="31" viewBox="0 0 31 31" fill="none" xmlns="http://www.w3.org/2000/svg">
<path d="M15.4998 29.5833C7.72161 29.5833 1.4165 23.2782 1.4165 15.5C1.4165 7.72173 7.72161 1.41663 15.4998 1.41663C23.2781 1.41663 29.5832 7.72173 29.5832 15.5C29.5832 23.2782 23.2781 29.5833 15.4998 29.5833ZM15.4998 27.6666C18.7266 27.6666 21.8213 26.3848 24.103 24.1031C26.3847 21.8214 27.6665 18.7268 27.6665 15.5C27.6665 12.2732 26.3847 9.17852 24.103 6.89683C21.8213 4.61513 18.7266 3.33329 15.4998 3.33329C12.273 3.33329 9.1784 4.61513 6.89671 6.89683C4.61501 9.17852 3.33317 12.2732 3.33317 15.5C3.33317 18.7268 4.61501 21.8214 6.89671 24.1031C9.1784 26.3848 12.273 27.6666 15.4998 27.6666ZM16.4582 8.70829V10.625H14.5415V8.70829H16.4582ZM16.4582 14.5416V22.2916H14.5415V14.5416H16.4582Z" fill="white" stroke="white"/>
</svg>
