<svg width="40" height="74" viewBox="0 0 40 74" fill="none" xmlns="http://www.w3.org/2000/svg">
<rect x="5.125" y="68.875" width="29.75" height="29.7525" rx="14.875" transform="rotate(-90 5.125 68.875)" fill="white"/>
<path d="M5.125 54L5.125 20H0.875L0.875 54H5.125ZM34.875 20V54H39.125V20H34.875ZM34.875 54C34.875 62.2152 28.2152 68.875 20 68.875V73.125C30.5624 73.125 39.125 64.5624 39.125 54H34.875ZM20 5.125C28.2152 5.125 34.875 11.7848 34.875 20H39.125C39.125 9.43755 30.5624 0.875 20 0.875V5.125ZM5.125 20C5.125 11.7848 11.7848 5.125 20 5.125V0.875C9.43755 0.875 0.875 9.43755 0.875 20H5.125ZM0.875 54C0.875 64.5624 9.43755 73.125 20 73.125V68.875C11.7848 68.875 5.125 62.2152 5.125 54H0.875Z" fill="white"/>
<path fill-rule="evenodd" clip-rule="evenodd" d="M20.7689 47.0434C20.9489 47.1334 21.0626 47.3173 21.0626 47.5186V63.6686C21.0626 63.8698 20.9489 64.0537 20.7689 64.1437C20.5889 64.2337 20.3735 64.2143 20.2126 64.0936L14.9709 60.1623H12.173C11.2928 60.1623 10.5792 59.4488 10.5792 58.5686V52.6186C10.5792 51.7384 11.2928 51.0248 12.173 51.0248H14.9709L20.2126 47.0936C20.3735 46.9728 20.5889 46.9534 20.7689 47.0434ZM20.0001 48.5811L15.4667 51.9811C15.3748 52.05 15.2629 52.0873 15.148 52.0873H12.173C11.8796 52.0873 11.6417 52.3252 11.6417 52.6186V58.5686C11.6417 58.862 11.8796 59.0998 12.173 59.0998H15.148C15.2629 59.0998 15.3748 59.1371 15.4667 59.2061L20.0001 62.6061V48.5811ZM30.3277 52.5265C30.5352 52.7339 30.5352 53.0703 30.3277 53.2778L28.0117 55.5938L30.3277 57.9098C30.5352 58.1173 30.5352 58.4537 30.3277 58.6611C30.1203 58.8686 29.7839 58.8686 29.5764 58.6611L27.2604 56.3451L24.9444 58.6611C24.7369 58.8686 24.4006 58.8686 24.1931 58.6611C23.9856 58.4537 23.9856 58.1173 24.1931 57.9098L26.5091 55.5938L24.1931 53.2778C23.9856 53.0703 23.9856 52.7339 24.1931 52.5265C24.4006 52.319 24.7369 52.319 24.9444 52.5265L27.2604 54.8425L29.5764 52.5265C29.7839 52.319 30.1203 52.319 30.3277 52.5265Z" fill="black"/>
<path d="M20.7689 47.0434L20.5313 47.5186L20.5313 47.5186L20.7689 47.0434ZM20.7689 64.1437L21.0065 64.6189L21.0065 64.6189L20.7689 64.1437ZM20.2126 64.0936L19.8938 64.5186L19.8938 64.5186L20.2126 64.0936ZM14.9709 60.1623L15.2896 59.7373L15.148 59.6311H14.9709V60.1623ZM14.9709 51.0248V51.5561H15.148L15.2896 51.4498L14.9709 51.0248ZM20.2126 47.0936L19.8938 46.6686L19.8938 46.6686L20.2126 47.0936ZM15.4667 51.9811L15.148 51.5561L15.148 51.5561L15.4667 51.9811ZM20.0001 48.5811H20.5313V47.5186L19.6813 48.1561L20.0001 48.5811ZM15.4667 59.2061L15.7855 58.7811L15.7855 58.7811L15.4667 59.2061ZM20.0001 62.6061L19.6813 63.0311L20.5313 63.6686V62.6061H20.0001ZM30.3277 53.2778L30.7034 53.6534L30.7034 53.6534L30.3277 53.2778ZM28.0117 55.5938L27.6361 55.2181L27.2604 55.5938L27.6361 55.9695L28.0117 55.5938ZM30.3277 57.9098L30.7034 57.5342L30.7034 57.5342L30.3277 57.9098ZM29.5764 58.6611L29.9521 58.2855L29.9521 58.2855L29.5764 58.6611ZM27.2604 56.3451L27.6361 55.9695L27.2604 55.5938L26.8848 55.9695L27.2604 56.3451ZM24.9444 58.6611L25.3201 59.0368L25.3201 59.0368L24.9444 58.6611ZM24.1931 58.6611L24.5688 58.2855L24.5688 58.2855L24.1931 58.6611ZM24.1931 57.9098L24.5688 58.2855L24.5688 58.2855L24.1931 57.9098ZM26.5091 55.5938L26.8848 55.9695L27.2604 55.5938L26.8848 55.2181L26.5091 55.5938ZM24.1931 53.2778L24.5688 52.9021L24.5688 52.9021L24.1931 53.2778ZM24.9444 52.5265L25.3201 52.1508L25.3201 52.1508L24.9444 52.5265ZM27.2604 54.8425L26.8848 55.2181L27.2604 55.5938L27.6361 55.2181L27.2604 54.8425ZM29.5764 52.5265L29.9521 52.9021L29.9521 52.9021L29.5764 52.5265ZM21.5938 47.5186C21.5938 47.1161 21.3664 46.7482 21.0065 46.5682L20.5313 47.5186L20.5313 47.5186H21.5938ZM21.5938 63.6686V47.5186H20.5313V63.6686H21.5938ZM21.0065 64.6189C21.3664 64.4389 21.5938 64.071 21.5938 63.6686H20.5313L20.5313 63.6686L21.0065 64.6189ZM19.8938 64.5186C20.2158 64.76 20.6465 64.7989 21.0065 64.6189L20.5313 63.6686L20.5313 63.6686L19.8938 64.5186ZM14.6521 60.5873L19.8938 64.5186L20.5313 63.6686L15.2896 59.7373L14.6521 60.5873ZM12.173 60.6936H14.9709V59.6311H12.173V60.6936ZM10.048 58.5686C10.048 59.7422 10.9994 60.6936 12.173 60.6936V59.6311C11.5862 59.6311 11.1105 59.1554 11.1105 58.5686H10.048ZM10.048 52.6186V58.5686H11.1105V52.6186H10.048ZM12.173 50.4936C10.9994 50.4936 10.048 51.445 10.048 52.6186H11.1105C11.1105 52.0318 11.5862 51.5561 12.173 51.5561V50.4936ZM14.9709 50.4936H12.173V51.5561H14.9709V50.4936ZM19.8938 46.6686L14.6521 50.5998L15.2896 51.4498L20.5313 47.5186L19.8938 46.6686ZM21.0065 46.5682C20.6465 46.3882 20.2158 46.4271 19.8938 46.6686L20.5313 47.5186L20.5313 47.5186L21.0065 46.5682ZM15.7855 52.4061L20.3188 49.0061L19.6813 48.1561L15.148 51.5561L15.7855 52.4061ZM15.148 52.6186C15.3779 52.6186 15.6016 52.544 15.7855 52.4061L15.148 51.5561L15.148 51.5561V52.6186ZM12.173 52.6186H15.148V51.5561H12.173V52.6186ZM12.173 52.6186V51.5561C11.5862 51.5561 11.1105 52.0318 11.1105 52.6186H12.173ZM12.173 58.5686V52.6186H11.1105V58.5686H12.173ZM12.173 58.5686H12.173H11.1105C11.1105 59.1554 11.5862 59.6311 12.173 59.6311V58.5686ZM15.148 58.5686H12.173V59.6311H15.148V58.5686ZM15.7855 58.7811C15.6016 58.6431 15.3779 58.5686 15.148 58.5686V59.6311L15.148 59.6311L15.7855 58.7811ZM20.3188 62.1811L15.7855 58.7811L15.148 59.6311L19.6813 63.0311L20.3188 62.1811ZM19.4688 48.5811V62.6061H20.5313V48.5811H19.4688ZM30.7034 53.6534C31.1183 53.2385 31.1183 52.5658 30.7034 52.1508L29.9521 52.9021V52.9021L30.7034 53.6534ZM28.3874 55.9695L30.7034 53.6534L29.9521 52.9021L27.6361 55.2181L28.3874 55.9695ZM27.6361 55.9695L29.9521 58.2855L30.7034 57.5342L28.3874 55.2181L27.6361 55.9695ZM29.9521 58.2855V58.2855L30.7034 59.0368C31.1183 58.6218 31.1183 57.9491 30.7034 57.5342L29.9521 58.2855ZM29.9521 58.2855H29.9521L29.2008 59.0368C29.6157 59.4517 30.2885 59.4517 30.7034 59.0368L29.9521 58.2855ZM29.9521 58.2855L27.6361 55.9695L26.8848 56.7208L29.2008 59.0368L29.9521 58.2855ZM25.3201 59.0368L27.6361 56.7208L26.8848 55.9695L24.5688 58.2855L25.3201 59.0368ZM23.8175 59.0368C24.2324 59.4517 24.9051 59.4517 25.3201 59.0368L24.5688 58.2855H24.5688L23.8175 59.0368ZM23.8175 57.5342C23.4025 57.9491 23.4025 58.6218 23.8175 59.0368L24.5688 58.2855L24.5688 58.2855L23.8175 57.5342ZM26.1335 55.2181L23.8175 57.5342L24.5688 58.2855L26.8848 55.9695L26.1335 55.2181ZM26.8848 55.2181L24.5688 52.9021L23.8175 53.6534L26.1335 55.9695L26.8848 55.2181ZM24.5688 52.9021V52.9021L23.8175 52.1508C23.4025 52.5658 23.4025 53.2385 23.8175 53.6534L24.5688 52.9021ZM24.5688 52.9021H24.5688L25.3201 52.1508C24.9051 51.7359 24.2324 51.7359 23.8175 52.1508L24.5688 52.9021ZM24.5688 52.9021L26.8848 55.2181L27.6361 54.4668L25.3201 52.1508L24.5688 52.9021ZM29.2008 52.1508L26.8848 54.4668L27.6361 55.2181L29.9521 52.9021L29.2008 52.1508ZM30.7034 52.1508C30.2885 51.7359 29.6157 51.7359 29.2008 52.1508L29.9521 52.9021H29.9521L30.7034 52.1508Z" fill="black"/>
</svg>
